<svg width="85" height="85" version="1.1" viewBox="0 0 115 90" xmlns="http://www.w3.org/2000/svg">
 <g transform="matrix(1.25,0,0,-1.25,0,90)">
  <g fill="none" stroke="#7FE1D9">
   <circle transform="scale(1,-1)" cx="36.062" cy="-35.66" r="31.959" stroke-linecap="round" stroke-linejoin="round" stroke-width="5.6"/>
   <path d="m66.548 20.358 21.206-12.243" stroke-linecap="round" stroke-width="5.6"/>
   <g stroke-width="2.4">
    <path d="m19.568 37.714v-17.109"/>
    <path d="m21.193 38.228 11.186-11.186"/>
    <path d="m32.399 24.883 12.832 6.4158"/>
    <path d="m40.954 16.328-10.693-2.1386"/>
    <path d="m31.668 25.534-1.1882-10.896"/>
   </g>
  </g>
  <g fill="#7FE1D9" stroke="#7FE1D9" stroke-width="3">
   <circle transform="scale(1,-1)" cx="19.698" cy="-39.219" r="2.5381"/>
   <circle transform="scale(1,-1)" cx="43.212" cy="-31.348" r="2.5381"/>
   <circle transform="scale(1,-1)" cx="31.977" cy="-27.009" r="2.5381"/>
   <circle transform="scale(1,-1)" cx="41.084" cy="-17.833" r="2.5381"/>
   <circle transform="scale(1,-1)" cx="29.474" cy="-13.25" r="2.5381"/>
   <circle transform="scale(1,-1)" cx="19.698" cy="-22.11" r="2.5381"/>
  </g>
  <g fill="none" stroke="#7FE1D9">
   <g stroke-width="2.4">
    <path d="m32.562 25.312 8.1266-6.4158"/>
    <path d="m21.319 23.296 8.9821 2.994"/>
    <path d="m29.567 13.402-9.4814 25.633"/>
    <path d="m19.792 22.259 10.549-9.7229"/>
   </g>
   <path d="m43.04 30.787-1.3917-14.278" stroke-width="2.4"/>
  </g>
  <path d="m56.057 34.488c-0.63695 0.4092-1.2062 0.76755-1.2651 0.79632-0.0818 0.04001-0.25598 0.01992-0.74021-0.08537l-0.63324-0.13768-0.81221-1.2153c-0.44672-0.66842-0.83853-1.2226-0.8707-1.2316-0.03217-9e-3 -0.44213 0.07877-0.91103 0.19495-0.56402 0.13974-0.8648 0.23855-0.88879 0.29196-0.01994 0.0444-0.10354 0.7148-0.18577 1.4898l-0.14952 1.409-1.021 0.84822-1.221-0.10458c-0.67156-0.05752-1.3417-0.11586-1.4892-0.12964l-0.26815-0.02505-0.3797 0.82094c-0.20884 0.45152-0.37729 0.85129-0.37435 0.88839 0.0029 0.0371 0.47133 0.52549 1.0409 1.0853l1.0355 1.0179 0.01003 0.54617c0.0055 0.3004 0.0073 0.60469 0.0039 0.6762-0.0049 0.1051-0.20004 0.33602-1.0176 1.2044-0.92981 0.98769-1.0084 1.0834-0.97338 1.1855 0.02094 0.06111 0.21213 0.44562 0.42487 0.85446l0.38679 0.74336 2.9543-0.35525 1.0529 0.82423 0.41318 2.9501 0.25677 0.05288c0.14122 0.02908 0.55797 0.1159 0.92611 0.19293l0.66934 0.14005 0.78661-1.2687c0.43264-0.69778 0.79324-1.2709 0.80134-1.2735 0.0081-0.0026 0.30012-0.07323 0.64892-0.15685l0.63418-0.15204 1.2838 0.75761c0.70608 0.41668 1.288 0.75431 1.2933 0.75028 0.0052-4e-3 0.33411-0.27373 0.73087-0.59932l0.72138-0.59199-0.49988-1.4051-0.49987-1.4051 0.23948-0.53336c0.13172-0.29335 0.27061-0.57223 0.30865-0.61975 0.03804-0.04752 0.68369-0.319 1.4348-0.60329 0.75109-0.28429 1.3663-0.52114 1.3671-0.52631 7.99e-4 -0.0052-0.0072-0.42259-0.01778-0.92759-0.0183-0.87318-0.02513-0.92152-0.13935-0.98638-0.06606-0.03751-0.69594-0.26284-1.3997-0.50073l-1.2796-0.43252-0.61856-1.1958 0.91095-2.8476-0.74718-0.57596c-0.41095-0.31678-0.75342-0.57656-0.76104-0.57729-0.0076-7.35e-4 -0.535 0.33347-1.1719 0.74267zm-2.1091 4.3808c1.0337 0.56422 1.5184 1.7003 1.1959 2.8029-0.24712 0.84472-1.0447 1.5349-1.9328 1.6725-1.1506 0.17827-2.3013-0.53171-2.637-1.627-0.14813-0.4833-0.1586-0.78375-0.04417-1.2674 0.17089-0.72231 0.54003-1.2155 1.1637-1.5547 0.73396-0.39917 1.5537-0.40874 2.2544-0.0263zm-16.028-1.9929c-0.06121 0.06382-0.49641 0.55238-0.96711 1.0857-0.4707 0.53332-0.88725 0.98591-0.92567 1.0058-0.03842 0.01985-0.35815 0.0341-0.71052 0.03167-0.35237-0.0024-0.66347-0.0029-0.69133-0.0011s-0.49736-0.50422-1.0433-1.1246l-0.99266-1.128-0.84538 0.24644c-0.46496 0.13554-0.85643 0.25114-0.86993 0.25689-0.01974 0.0084-0.38405 2.2607-0.45605 2.8195-0.01624 0.12603-0.09084 0.18914-0.63752 0.53935l-0.61913 0.39662-2.8755-0.82352-0.54762 0.62595c-0.30119 0.34427-0.56885 0.65734-0.59479 0.69571-0.0322 0.04762 0.06426 0.31982 0.30392 0.85761 0.1931 0.43332 0.46493 1.0461 0.60405 1.3618l0.25296 0.57395-0.30152 0.65813c-0.16583 0.36197-0.31261 0.66358-0.32617 0.67024-0.01356 0.0067-0.34749 0.10822-0.74208 0.2257s-1.0311 0.30741-1.4144 0.42209l-0.69701 0.2085-0.12443 0.88619c-0.06844 0.4874-0.11873 0.89667-0.11176 0.90949 7e-3 0.01282 0.56939 0.38983 1.2498 0.83781s1.2377 0.81866 1.2384 0.82375c6.68e-4 0.0051 0.04665 0.32953 0.10218 0.72098l0.10096 0.71173-0.95279 1.1156c-0.52403 0.6136-0.95825 1.1341-0.96493 1.1567-0.02027 0.0686 0.70767 1.6364 0.76512 1.6479 0.02943 0.0059 0.69156 0.01818 1.4714 0.02732 0.77984 0.0091 1.4372 0.02233 1.4608 0.02929 0.02359 7e-3 0.25316 0.2595 0.51016 0.56119l0.46728 0.54852-0.19473 1.3962c-0.1071 0.76792-0.19594 1.4339-0.19742 1.4799-0.0016 0.05113 0.0803 0.13699 0.21079 0.22087 0.11741 0.07547 0.45754 0.29544 0.75584 0.48881l0.54237 0.35159 2.5389-1.6021 1.4074 0.41794 0.62846 1.3639c0.5958 1.293 0.63524 1.3637 0.75879 1.3596 0.07168-0.0023 0.47359-0.0043 0.89314-0.0043 0.41955-1.8e-5 0.77197-5e-3 0.78317-0.01111 0.0112-0.0061 0.29742-0.6042 0.63605-1.3291 0.44882-0.96082 0.64147-1.3317 0.7108-1.3683 0.13525-0.07143 1.2984-0.40227 1.3552-0.38548 0.02601 0.0077 0.60218 0.36646 1.2804 0.79727s1.2388 0.77979 1.2459 0.7755c0.31982-0.1948 1.4474-0.93348 1.4737-0.96535 0.02032-0.0247-0.04962-0.69673-0.15541-1.4934-0.1058-0.79666-0.1878-1.4639-0.18223-1.4827 0.0084-0.02859 0.90186-1.074 0.93856-1.0983 0.0066-0.0043 0.67702-0.01223 1.4899-0.01751 0.81285-0.0053 1.4882-0.01522 1.5009-0.02209 0.03063-0.01666 0.66972-1.4007 0.71496-1.5484 0.03121-0.10187-0.07584-0.24681-0.88641-1.2002-0.50705-0.59637-0.938-1.1033-0.95766-1.1265-0.01966-0.02321 0.0093-0.36792 0.06427-0.76603l0.10002-0.72383 1.175-0.76976c0.64623-0.42337 1.2107-0.79508 1.2544-0.82603 0.06696-0.04744 0.05989-0.1966-0.04505-0.9509l-0.12446-0.89459-2.8611-0.87137-0.28265-0.61369c-0.15546-0.33753-0.29007-0.64328-0.29913-0.67945-0.0091-0.03617 0.25666-0.67481 0.59049-1.4192 0.33384-0.74439 0.60064-1.3617 0.5929-1.3719-0.17957-0.23502-1.1414-1.3085-1.1836-1.321-0.03233-0.0096-0.66768 0.15446-1.4119 0.36446-0.7442 0.21001-1.3787 0.38806-1.4101 0.39567-0.05034 0.01222-1.2643-0.73735-1.2847-0.79328-0.0044-0.01212-0.10515-0.67296-0.22383-1.4685l-0.21578-1.4465-1.7301-0.53796zm-0.76759 7.9443c1.2948 0.4919 2.4008 1.7748 2.7673 3.2098 0.39461 1.5452-0.01897 3.2119-1.0917 4.3995-0.78781 0.87219-1.982 1.4574-3.1689 1.5529-0.60683 0.04883-1.0789-0.0075-1.7686-0.2112-0.51053-0.15074-0.68127-0.22216-1.0199-0.42654-0.78214-0.47199-1.3554-1.0705-1.7876-1.8662-0.41899-0.7714-0.60525-1.5519-0.58834-2.4654 0.01014-0.54786 0.373-1.776 0.66223-2.2414 0.4393-0.70689 1.0079-1.274 1.6755-1.6711 0.71011-0.4224 1.7355-0.69578 2.5432-0.67804 0.36449 8e-3 1.1345 0.14058 1.3562 0.2335 0.06042 0.02532 0.24971 0.09918 0.42065 0.16412z" fill="#7FE1D9" stroke-width=".047359"/>
 </g>
</svg>
