
<svg id="Layer_1" data-name="Layer 1" xmlns="http://www.w3.org/2000/svg" xmlns:xlink="http://www.w3.org/1999/xlink" viewBox="0 0 735.48 270.46">
<a href="https://spcl.inf.ethz.ch/" rel="noopener" target="_blank">
    <defs><style>.cls-1,.cls-2,.cls-3{fill:none;}.cls-1{clip-rule:evenodd;}.cls-2,.cls-4,.cls-5,.cls-7{fill-rule:evenodd;}.cls-4,.cls-6{fill:#3a5829;}.cls-5,.cls-9{fill:#fff;}.cls-7{fill:#8d181b;}.cls-8{clip-path:url(#clip-path);}.cls-10{clip-path:url(#clip-path-10);}</style><clipPath id="clip-path" transform="translate(-9.12 -5.34)"><polyline class="cls-1" points="-165 -296 922.2 -296 922.2 316 -165 316"/></clipPath><clipPath id="clip-path-10" transform="translate(-9.12 -5.34)"><rect class="cls-3" x="-165" y="-294" width="1087.2" height="612"/></clipPath></defs><title>spcl_logo_fat</title><polygon class="cls-4" points="312.6 270.46 524.04 3.7 735.48 270.46 312.6 270.46"/><polygon class="cls-4" points="131.88 270.46 297 38.74 462.12 270.46 131.88 270.46"/><polygon class="cls-4" points="0 270.46 111.12 146.86 222.24 270.46 0 270.46"/><polygon class="cls-5" points="241.44 135.22 297 57.94 352.56 135.22 241.44 135.22"/><polygon class="cls-5" points="432.72 134.14 523.74 18.1 614.76 134.14 432.72 134.14"/><polygon class="cls-4" points="223.2 152.14 270 113.62 316.8 152.14 223.2 152.14"/><polygon class="cls-4" points="276.96 150.7 323.76 112.18 370.56 150.7 276.96 150.7"/><polygon class="cls-4" points="417.48 148.78 464.28 110.26 511.08 148.78 417.48 148.78"/><polygon class="cls-4" points="539.16 149.5 585.96 110.98 632.76 149.5 539.16 149.5"/><polygon class="cls-4" points="480.24 146.86 527.04 108.22 573.84 146.86 480.24 146.86"/><rect class="cls-6" y="3.7" width="7.44" height="266.76"/><polygon class="cls-7" points="194.04 101.76 11.64 125.38 11.64 7.3 194.04 7.3 194.04 101.76"/><g class="cls-8"><rect class="cls-9" x="59.7" y="52.05" width="42.94" height="32.12" transform="translate(-16.83 5.07) rotate(-7.01)"/></g><g class="cls-8"><polygon class="cls-5" points="101.32 77.91 143.94 72.66 147.86 104.54 105.24 109.78 101.32 77.91"/></g><g class="cls-8"><polygon class="cls-5" points="91.61 5.25 134.23 0 138.15 31.88 95.53 37.12 91.61 5.25"/></g><g class="cls-8"><polygon class="cls-5" points="96.5 42.89 139.12 37.65 143.04 69.52 100.42 74.77 96.5 42.89"/></g><g class="cls-8"><polygon class="cls-5" points="144.71 37.24 187.33 31.99 191.25 63.87 148.63 69.11 144.71 37.24"/></g><g class="cls-8"><rect class="cls-9" x="124.71" y="36.33" width="4.64" height="12.22" transform="matrix(0.99, -0.12, 0.12, 0.99, -13.26, 10.03)"/></g><g class="cls-8"><polygon class="cls-5" points="119.78 66.89 124.38 66.35 125.83 78.48 121.23 79.03 119.78 66.89"/></g><g class="cls-8"><polygon class="cls-5" points="90.72 62.56 90.05 58.01 102.24 56.2 102.92 60.74 90.72 62.56"/></g><g class="cls-8"><polygon class="cls-5" points="138.45 56.9 137.77 52.36 149.97 50.54 150.64 55.09 138.45 56.9"/></g><g class="cls-10"><path class="cls-9" d="M326.83,252.17a21.84,21.84,0,0,1-2.91,6.46,32.46,32.46,0,0,1-4.95,6,29.21,29.21,0,0,1-6.07,4.49,13,13,0,0,1-6.27,1.78H191.11l5.68-18.74H279a10.13,10.13,0,0,0,5.8-1.79,18,18,0,0,0,4.49-4.29,13.87,13.87,0,0,0,1.79-3.36c.57-1.46,1.07-2.93,1.51-4.43q.66-2.51,1.32-5.41H226.36a44.43,44.43,0,0,1-9-.92,21.7,21.7,0,0,1-7.46-2.91,9.78,9.78,0,0,1-4.1-5c-.7-2-.31-4.44,1.19-7.26l6.6-22a17.92,17.92,0,0,1,4-7.73,23.69,23.69,0,0,1,6.47-5,27.69,27.69,0,0,1,7.79-2.71,42.47,42.47,0,0,1,8-.79h109l-5.94,19.8-72.87.13c-4.23-.17-7.46.22-9.71,1.19a9.35,9.35,0,0,0-5,5.28l-2.9,9.51h67.33a33.51,33.51,0,0,1,6.34.59,13.64,13.64,0,0,1,5.21,2.11,8.84,8.84,0,0,1,3.17,3.9,9.35,9.35,0,0,1,.07,5.94Z" transform="translate(-9.12 -5.34)"/><path class="cls-9" d="M333,270.91l28.65-92.41H467.56a5.46,5.46,0,0,1,4.09,2,16.87,16.87,0,0,1,3,5,25.94,25.94,0,0,1,1.65,6.07,14.63,14.63,0,0,1-.07,5.41,32,32,0,0,1-1,3.24l-1.65,4.68c-.62,1.76-1.3,3.66-2.05,5.68s-1.47,4-2.17,6.07q-2.52,7.13-5.68,15.32a4.33,4.33,0,0,1-1.32,2.57,22.31,22.31,0,0,1-3.1,2.91,26.68,26.68,0,0,1-3.77,2.44,7.45,7.45,0,0,1-3.3,1.05h-7.85c-3.48,0-7.28,0-11.42-.06s-8.38-.07-12.74-.07h-23.3l6.86-19.54h24.95a3.64,3.64,0,0,0,2.78-1.12,11.06,11.06,0,0,0,1.85-2.77,29.62,29.62,0,0,0,1.45-3.76c.44-1.41.92-2.86,1.45-4.36q1.46-4.09-.26-7a7.22,7.22,0,0,0-4.89-3.56,30.09,30.09,0,0,0-3.43-.2c-1.76,0-3.81-.07-6.14-.07H398.91l-24.43,72.48Z" transform="translate(-9.12 -5.34)"/><path class="cls-9" d="M488.55,178.5H605l-7,23.1H523.4l-12.94,43a3.93,3.93,0,0,0,.46,2.57c.49,1,1.08,1.52,1.79,1.52h4.22q3.57,0,8.91-.06t11.95-.13q6.6-.07,13.34-.07t13.07-.07q6.33-.06,11.15-.06t7.59.06c1.85,0,2.64.11,2.38.2l-6.6,22.31H481.15a12.26,12.26,0,0,1-3.43-.53,19.22,19.22,0,0,1-3.63-1.45,18,18,0,0,1-3.23-2.11,12.67,12.67,0,0,1-2.38-2.51,40.37,40.37,0,0,1-3.3-6.47,9.8,9.8,0,0,1-.4-6.86Z" transform="translate(-9.12 -5.34)"/><path class="cls-9" d="M613.17,178.5h41.2L631.79,249h73.8l-5,21.91H607.76a18,18,0,0,1-8.32-2.18,36.75,36.75,0,0,1-7.26-4.81,6.44,6.44,0,0,1-1.65-3.24,34.19,34.19,0,0,1-.86-5.08,41.89,41.89,0,0,1-.13-5.61,21.26,21.26,0,0,1,.66-4.69Z" transform="translate(-9.12 -5.34)"/></g>
</a>
</svg>